<svg width="66" height="66" viewBox="0 0 66 66" fill="none" xmlns="http://www.w3.org/2000/svg">
<path fill-rule="evenodd" clip-rule="evenodd" d="M1.50434 12.4796C0.718515 13.2559 0.710763 14.5222 1.48701 15.308L19.3469 33.3886L1.48927 51.1018C0.705026 51.8796 0.699899 53.146 1.47773 53.9302L12.7454 65.2897C13.5233 66.074 14.7896 66.0791 15.5738 65.3012L33.4019 47.6173L50.6796 65.1085C51.4558 65.8943 52.7221 65.9021 53.5079 65.1259L64.8909 53.8819C65.6767 53.1056 65.6845 51.8393 64.9083 51.0535L47.6014 33.5328L65.2719 16.0052C66.0562 15.2273 66.0613 13.961 65.2835 13.1768L54.0158 1.81725C53.2379 1.03304 51.9716 1.02788 51.1874 1.80574L33.5464 19.304L15.7157 1.25298C14.9395 0.467148 13.6732 0.459366 12.8873 1.23561L1.50434 12.4796Z" fill="black"/>
</svg>
