<svg width="55" height="81" viewBox="0 0 55 81" fill="none" xmlns="http://www.w3.org/2000/svg">
<mask id="path-1-inside-1" fill="white">
<path fill-rule="evenodd" clip-rule="evenodd" d="M44.9767 27.06C45.4561 27.3342 46.067 27.1679 46.3412 26.6885L53.8809 13.5084C54.1552 13.029 53.9889 12.4181 53.5095 12.1438L33.5452 0.723286C33.0658 0.449051 32.4549 0.615361 32.1807 1.09475L24.641 14.2749C24.3667 14.7543 24.533 15.3652 25.0124 15.6395L44.9767 27.06ZM1.86476 54.4663C1.89287 53.7153 2.70828 53.2626 3.3606 53.6357L23.2624 65.0206C23.9147 65.3937 23.9377 66.3261 23.3046 66.731L2.47821 80.05C1.79831 80.4848 0.909956 79.9767 0.940141 79.1702L1.86476 54.4663ZM3.83112 52.6454C3.35173 52.3712 3.18542 51.7603 3.45965 51.2809L23.0752 16.991C23.3494 16.5116 23.9604 16.3453 24.4397 16.6196L44.3592 28.0145C44.8386 28.2888 45.0049 28.8997 44.7307 29.3791L25.1152 63.6689C24.8409 64.1483 24.23 64.3146 23.7506 64.0404L3.83112 52.6454Z"/>
</mask>
<path fill-rule="evenodd" clip-rule="evenodd" d="M44.9767 27.06C45.4561 27.3342 46.067 27.1679 46.3412 26.6885L53.8809 13.5084C54.1552 13.029 53.9889 12.4181 53.5095 12.1438L33.5452 0.723286C33.0658 0.449051 32.4549 0.615361 32.1807 1.09475L24.641 14.2749C24.3667 14.7543 24.533 15.3652 25.0124 15.6395L44.9767 27.06ZM1.86476 54.4663C1.89287 53.7153 2.70828 53.2626 3.3606 53.6357L23.2624 65.0206C23.9147 65.3937 23.9377 66.3261 23.3046 66.731L2.47821 80.05C1.79831 80.4848 0.909956 79.9767 0.940141 79.1702L1.86476 54.4663ZM3.83112 52.6454C3.35173 52.3712 3.18542 51.7603 3.45965 51.2809L23.0752 16.991C23.3494 16.5116 23.9604 16.3453 24.4397 16.6196L44.3592 28.0145C44.8386 28.2888 45.0049 28.8997 44.7307 29.3791L25.1152 63.6689C24.8409 64.1483 24.23 64.3146 23.7506 64.0404L3.83112 52.6454Z" fill="black"/>
<path d="M46.3412 26.6885L45.4732 26.192L45.4732 26.192L46.3412 26.6885ZM44.9767 27.06L44.4801 27.928L44.4801 27.928L44.9767 27.06ZM53.8809 13.5084L54.7489 14.0049L54.7489 14.0049L53.8809 13.5084ZM53.5095 12.1438L53.0129 13.0119L53.0129 13.0119L53.5095 12.1438ZM33.5452 0.723286L34.0418 -0.144725L34.0418 -0.144725L33.5452 0.723286ZM32.1807 1.09475L33.0487 1.5913L32.1807 1.09475ZM24.641 14.2749L23.7729 13.7784L23.7729 13.7784L24.641 14.2749ZM25.0124 15.6395L25.509 14.7714L25.509 14.7714L25.0124 15.6395ZM3.3606 53.6357L2.86406 54.5037L2.86406 54.5037L3.3606 53.6357ZM1.86476 54.4663L0.865457 54.4289L0.865457 54.4289L1.86476 54.4663ZM23.2624 65.0206L22.7658 65.8886L22.7658 65.8886L23.2624 65.0206ZM23.3046 66.731L23.8434 67.5735L23.8434 67.5735L23.3046 66.731ZM2.47821 80.05L1.93944 79.2076L1.93944 79.2076L2.47821 80.05ZM0.940141 79.1702L1.93944 79.2076L1.93944 79.2076L0.940141 79.1702ZM3.45965 51.2809L2.59164 50.7843L2.59164 50.7843L3.45965 51.2809ZM3.83112 52.6454L4.32767 51.7774L4.32767 51.7774L3.83112 52.6454ZM23.0752 16.991L23.9432 17.4876L23.9432 17.4876L23.0752 16.991ZM24.4397 16.6196L24.9363 15.7516L24.9363 15.7516L24.4397 16.6196ZM44.3592 28.0145L43.8627 28.8825L43.8627 28.8825L44.3592 28.0145ZM44.7307 29.3791L45.5987 29.8756L45.5987 29.8756L44.7307 29.3791ZM25.1152 63.6689L24.2472 63.1724L24.2472 63.1724L25.1152 63.6689ZM23.7506 64.0404L24.2472 63.1724L24.2472 63.1724L23.7506 64.0404ZM45.4732 26.192L45.4732 26.192L44.4801 27.928C45.4389 28.4765 46.6608 28.1439 47.2092 27.1851L45.4732 26.192ZM53.0129 13.0119L45.4732 26.192L47.2092 27.1851L54.7489 14.0049L53.0129 13.0119ZM53.0129 13.0119L53.0129 13.0119L54.7489 14.0049C55.2974 13.0462 54.9648 11.8243 54.006 11.2758L53.0129 13.0119ZM33.0487 1.5913L53.0129 13.0119L54.006 11.2758L34.0418 -0.144725L33.0487 1.5913ZM33.0487 1.5913L33.0487 1.5913L34.0418 -0.144725C33.083 -0.693193 31.8611 -0.360575 31.3127 0.598204L33.0487 1.5913ZM25.509 14.7714L33.0487 1.5913L31.3127 0.598204L23.7729 13.7784L25.509 14.7714ZM25.509 14.7714L25.509 14.7714L23.7729 13.7784C23.2245 14.7371 23.5571 15.959 24.5159 16.5075L25.509 14.7714ZM45.4732 26.192L25.509 14.7714L24.5159 16.5075L44.4801 27.928L45.4732 26.192ZM3.85715 52.7677C2.55251 52.0214 0.921673 52.9269 0.865457 54.4289L2.86406 54.5037L2.86406 54.5037L3.85715 52.7677ZM23.7589 64.1525L3.85715 52.7677L2.86406 54.5037L22.7658 65.8886L23.7589 64.1525ZM23.8434 67.5735C25.1096 66.7637 25.0636 64.8989 23.7589 64.1525L22.7658 65.8886L22.7658 65.8886L23.8434 67.5735ZM3.01698 80.8925L23.8434 67.5735L22.7658 65.8886L1.93944 79.2076L3.01698 80.8925ZM-0.0591592 79.1328C-0.119529 80.7457 1.65719 81.7621 3.01698 80.8925L1.93944 79.2076L1.93944 79.2076L-0.0591592 79.1328ZM0.865457 54.4289L-0.0591592 79.1328L1.93944 79.2076L2.86406 54.5037L0.865457 54.4289ZM2.59164 50.7843C2.04317 51.7431 2.3758 52.965 3.33457 53.5134L4.32767 51.7774L4.32767 51.7774L2.59164 50.7843ZM22.2072 16.4945L2.59164 50.7843L4.32767 51.7774L23.9432 17.4876L22.2072 16.4945ZM24.9363 15.7516C23.9775 15.2031 22.7556 15.5357 22.2072 16.4945L23.9432 17.4876L23.9432 17.4876L24.9363 15.7516ZM44.8558 27.1465L24.9363 15.7516L23.9432 17.4876L43.8627 28.8825L44.8558 27.1465ZM45.5987 29.8756C46.1472 28.9169 45.8146 27.695 44.8558 27.1465L43.8627 28.8825L43.8627 28.8825L45.5987 29.8756ZM25.9832 64.1655L45.5987 29.8756L43.8627 28.8825L24.2472 63.1724L25.9832 64.1655ZM23.2541 64.9084C24.2128 65.4569 25.4347 65.1243 25.9832 64.1655L24.2472 63.1724L24.2472 63.1724L23.2541 64.9084ZM3.33457 53.5134L23.2541 64.9084L24.2472 63.1724L4.32767 51.7774L3.33457 53.5134Z" fill="black" mask="url(#path-1-inside-1)"/>
</svg>
